<mxfile host="app.diagrams.net" modified="2023-09-10T16:04:33.416Z" agent="Mozilla/5.0 (Windows NT 10.0; Win64; x64) AppleWebKit/537.36 (KHTML, like Gecko) Chrome/116.0.0.0 Safari/537.36" etag="-qmO3R8TPow9C0Zrdn6g" version="21.7.4" type="device">
  <diagram name="Page-1" id="5ZAQ42vwghwptSKy7Ux5">
    <mxGraphModel dx="989" dy="523" grid="1" gridSize="10" guides="1" tooltips="1" connect="1" arrows="1" fold="1" page="1" pageScale="1" pageWidth="827" pageHeight="1169" background="none" math="0" shadow="0">
      <root>
        <mxCell id="0" />
        <mxCell id="1" parent="0" />
        <mxCell id="ILLCzPjvgJH33XraiZX7-1" value="&lt;font style=&quot;font-size: 12px;&quot;&gt;identifier&lt;/font&gt;" style="rounded=1;whiteSpace=wrap;html=1;arcSize=50;shadow=0;comic=0;strokeOpacity=100;strokeColor=default;strokeWidth=1.2;" vertex="1" parent="1">
          <mxGeometry x="85" y="110" width="70" height="20" as="geometry" />
        </mxCell>
        <mxCell id="ILLCzPjvgJH33XraiZX7-19" value="FOR" style="rounded=0;whiteSpace=wrap;html=1;shadow=0;comic=0;strokeOpacity=100;strokeColor=default;strokeWidth=1.2;" vertex="1" parent="1">
          <mxGeometry x="185" y="140" width="40" height="20" as="geometry" />
        </mxCell>
        <mxCell id="ILLCzPjvgJH33XraiZX7-20" value="ORDINALITY" style="rounded=0;whiteSpace=wrap;html=1;shadow=0;comic=0;strokeOpacity=100;strokeColor=default;strokeWidth=1.2;" vertex="1" parent="1">
          <mxGeometry x="235" y="140" width="80" height="20" as="geometry" />
        </mxCell>
        <mxCell id="ILLCzPjvgJH33XraiZX7-32" value="" style="edgeStyle=elbowEdgeStyle;elbow=horizontal;endArrow=none;html=1;rounded=1;endSize=8;startSize=8;endFill=0;entryX=0;entryY=0.5;entryDx=0;entryDy=0;exitX=1;exitY=0.5;exitDx=0;exitDy=0;shadow=0;comic=0;strokeOpacity=100;strokeColor=default;strokeWidth=1.2;" edge="1" parent="1" source="ILLCzPjvgJH33XraiZX7-1" target="ILLCzPjvgJH33XraiZX7-19">
          <mxGeometry width="50" height="50" relative="1" as="geometry">
            <mxPoint x="135" y="160" as="sourcePoint" />
            <mxPoint x="185" y="110" as="targetPoint" />
            <Array as="points">
              <mxPoint x="170" y="140" />
            </Array>
          </mxGeometry>
        </mxCell>
        <mxCell id="ILLCzPjvgJH33XraiZX7-33" value="" style="edgeStyle=elbowEdgeStyle;elbow=horizontal;endArrow=none;html=1;rounded=1;endSize=8;startSize=8;endFill=0;exitX=1;exitY=0.5;exitDx=0;exitDy=0;entryX=0;entryY=0.5;entryDx=0;entryDy=0;shadow=0;comic=0;strokeOpacity=100;strokeColor=default;strokeWidth=1.2;" edge="1" parent="1" source="ILLCzPjvgJH33XraiZX7-1" target="ILLCzPjvgJH33XraiZX7-43">
          <mxGeometry width="50" height="50" relative="1" as="geometry">
            <mxPoint x="145" y="50" as="sourcePoint" />
            <mxPoint x="185" y="70" as="targetPoint" />
          </mxGeometry>
        </mxCell>
        <mxCell id="ILLCzPjvgJH33XraiZX7-42" value="" style="endArrow=none;html=1;exitX=1;exitY=0.5;exitDx=0;exitDy=0;entryX=0;entryY=0.5;entryDx=0;entryDy=0;shadow=0;comic=0;strokeOpacity=100;strokeColor=default;strokeWidth=1.2;" edge="1" parent="1" source="ILLCzPjvgJH33XraiZX7-19" target="ILLCzPjvgJH33XraiZX7-20">
          <mxGeometry width="50" height="50" relative="1" as="geometry">
            <mxPoint x="255" y="110" as="sourcePoint" />
            <mxPoint x="305" y="60" as="targetPoint" />
          </mxGeometry>
        </mxCell>
        <mxCell id="ILLCzPjvgJH33XraiZX7-43" value="&lt;font style=&quot;font-size: 12px;&quot;&gt;datatype&lt;/font&gt;" style="rounded=1;whiteSpace=wrap;html=1;arcSize=50;shadow=0;comic=0;strokeOpacity=100;strokeColor=default;strokeWidth=1.2;" vertex="1" parent="1">
          <mxGeometry x="185" y="80" width="60" height="20" as="geometry" />
        </mxCell>
        <mxCell id="ILLCzPjvgJH33XraiZX7-44" value="&lt;font style=&quot;font-size: 12px;&quot;&gt;Format_clause&lt;/font&gt;" style="rounded=1;whiteSpace=wrap;html=1;arcSize=50;shadow=0;comic=0;strokeOpacity=100;strokeColor=default;strokeWidth=1.2;" vertex="1" parent="1">
          <mxGeometry x="265" y="50" width="100" height="20" as="geometry" />
        </mxCell>
        <mxCell id="ILLCzPjvgJH33XraiZX7-45" value="&lt;font style=&quot;font-size: 12px;&quot;&gt;Ref_clause&lt;/font&gt;" style="rounded=1;whiteSpace=wrap;html=1;arcSize=50;shadow=0;comic=0;strokeOpacity=100;strokeColor=default;strokeWidth=1.2;" vertex="1" parent="1">
          <mxGeometry x="405" y="50" width="80" height="20" as="geometry" />
        </mxCell>
        <mxCell id="ILLCzPjvgJH33XraiZX7-46" value="&lt;font style=&quot;font-size: 12px;&quot;&gt;Metadata_clause&lt;/font&gt;" style="rounded=1;whiteSpace=wrap;html=1;arcSize=50;shadow=0;comic=0;strokeOpacity=100;strokeColor=default;strokeWidth=1.2;" vertex="1" parent="1">
          <mxGeometry x="525" y="50" width="110" height="20" as="geometry" />
        </mxCell>
        <mxCell id="ILLCzPjvgJH33XraiZX7-47" value="" style="edgeStyle=elbowEdgeStyle;elbow=horizontal;endArrow=none;html=1;rounded=1;endSize=8;startSize=8;endFill=0;exitX=1;exitY=0.5;exitDx=0;exitDy=0;strokeColor=default;anchorPointDirection=1;startFill=1;shadow=0;comic=0;strokeOpacity=100;strokeWidth=1.2;" edge="1" parent="1" source="ILLCzPjvgJH33XraiZX7-43">
          <mxGeometry width="50" height="50" relative="1" as="geometry">
            <mxPoint x="274.99999999999994" y="79.96000000000004" as="sourcePoint" />
            <mxPoint x="675" y="120" as="targetPoint" />
            <Array as="points">
              <mxPoint x="665" y="100" />
            </Array>
          </mxGeometry>
        </mxCell>
        <mxCell id="ILLCzPjvgJH33XraiZX7-48" value="" style="edgeStyle=elbowEdgeStyle;elbow=horizontal;endArrow=none;html=1;rounded=1;endSize=8;startSize=8;exitX=1;exitY=0.5;exitDx=0;exitDy=0;endFill=0;shadow=0;comic=0;strokeOpacity=100;strokeColor=default;strokeWidth=1.2;" edge="1" parent="1" source="ILLCzPjvgJH33XraiZX7-20">
          <mxGeometry width="50" height="50" relative="1" as="geometry">
            <mxPoint x="335" y="160" as="sourcePoint" />
            <mxPoint x="675" y="120" as="targetPoint" />
            <Array as="points">
              <mxPoint x="665" y="130" />
            </Array>
          </mxGeometry>
        </mxCell>
        <mxCell id="ILLCzPjvgJH33XraiZX7-52" value="" style="edgeStyle=elbowEdgeStyle;elbow=horizontal;endArrow=open;html=1;rounded=1;endSize=6;startSize=6;endFill=0;entryX=1;entryY=0.5;entryDx=0;entryDy=0;shadow=0;comic=0;strokeOpacity=100;strokeColor=default;strokeWidth=1.2;" edge="1" parent="1" target="ILLCzPjvgJH33XraiZX7-54">
          <mxGeometry width="50" height="50" relative="1" as="geometry">
            <mxPoint x="675" y="120" as="sourcePoint" />
            <mxPoint x="405" y="220" as="targetPoint" />
            <Array as="points">
              <mxPoint x="685" y="150" />
            </Array>
          </mxGeometry>
        </mxCell>
        <mxCell id="ILLCzPjvgJH33XraiZX7-54" value="," style="rounded=1;whiteSpace=wrap;html=1;arcSize=50;shadow=0;comic=0;imageWidth=24;strokeOpacity=100;strokeColor=default;strokeWidth=1.2;" vertex="1" parent="1">
          <mxGeometry x="365" y="180" width="24" height="20" as="geometry" />
        </mxCell>
        <mxCell id="ILLCzPjvgJH33XraiZX7-55" value="" style="edgeStyle=elbowEdgeStyle;elbow=horizontal;endArrow=none;html=1;rounded=1;endSize=8;startSize=8;exitX=0;exitY=0.5;exitDx=0;exitDy=0;endFill=0;entryX=0;entryY=0.5;entryDx=0;entryDy=0;shadow=0;comic=0;strokeOpacity=100;strokeColor=default;strokeWidth=1.2;" edge="1" parent="1" source="ILLCzPjvgJH33XraiZX7-54" target="ILLCzPjvgJH33XraiZX7-1">
          <mxGeometry width="50" height="50" relative="1" as="geometry">
            <mxPoint x="250" y="245" as="sourcePoint" />
            <mxPoint x="115" y="190" as="targetPoint" />
            <Array as="points">
              <mxPoint x="75" y="150" />
            </Array>
          </mxGeometry>
        </mxCell>
        <mxCell id="ILLCzPjvgJH33XraiZX7-56" value="" style="edgeStyle=elbowEdgeStyle;elbow=horizontal;endArrow=none;html=1;endSize=8;startSize=8;exitX=1;exitY=0.5;exitDx=0;exitDy=0;entryX=0;entryY=0.5;entryDx=0;entryDy=0;endFill=0;curved=1;shadow=0;comic=0;strokeOpacity=100;strokeColor=default;strokeWidth=1.2;" edge="1" parent="1" source="ILLCzPjvgJH33XraiZX7-43" target="ILLCzPjvgJH33XraiZX7-44">
          <mxGeometry width="50" height="50" relative="1" as="geometry">
            <mxPoint x="355" y="110" as="sourcePoint" />
            <mxPoint x="405" y="60" as="targetPoint" />
            <Array as="points">
              <mxPoint x="255" y="80" />
            </Array>
          </mxGeometry>
        </mxCell>
        <mxCell id="ILLCzPjvgJH33XraiZX7-57" value="" style="edgeStyle=elbowEdgeStyle;elbow=horizontal;endArrow=none;html=1;endSize=8;startSize=8;endFill=0;curved=1;entryX=0;entryY=0.5;entryDx=0;entryDy=0;shadow=0;comic=0;strokeOpacity=100;strokeColor=default;strokeWidth=1.2;" edge="1" parent="1" target="ILLCzPjvgJH33XraiZX7-45">
          <mxGeometry width="50" height="50" relative="1" as="geometry">
            <mxPoint x="385" y="90" as="sourcePoint" />
            <mxPoint x="415" y="60" as="targetPoint" />
            <Array as="points">
              <mxPoint x="395" y="70" />
            </Array>
          </mxGeometry>
        </mxCell>
        <mxCell id="ILLCzPjvgJH33XraiZX7-58" value="" style="edgeStyle=elbowEdgeStyle;elbow=horizontal;endArrow=none;html=1;endSize=8;startSize=8;endFill=0;curved=1;entryX=1;entryY=0.5;entryDx=0;entryDy=0;shadow=0;comic=0;strokeOpacity=100;strokeColor=default;strokeWidth=1.2;" edge="1" parent="1" target="ILLCzPjvgJH33XraiZX7-44">
          <mxGeometry width="50" height="50" relative="1" as="geometry">
            <mxPoint x="385" y="90" as="sourcePoint" />
            <mxPoint x="395" y="60" as="targetPoint" />
            <Array as="points">
              <mxPoint x="375" y="70" />
            </Array>
          </mxGeometry>
        </mxCell>
        <mxCell id="ILLCzPjvgJH33XraiZX7-59" value="" style="edgeStyle=elbowEdgeStyle;elbow=horizontal;endArrow=none;html=1;endSize=8;startSize=8;endFill=0;curved=1;entryX=1;entryY=0.5;entryDx=0;entryDy=0;shadow=0;comic=0;strokeOpacity=100;strokeColor=default;strokeWidth=1.2;" edge="1" parent="1" target="ILLCzPjvgJH33XraiZX7-45">
          <mxGeometry width="50" height="50" relative="1" as="geometry">
            <mxPoint x="505" y="90" as="sourcePoint" />
            <mxPoint x="505" y="60" as="targetPoint" />
            <Array as="points">
              <mxPoint x="495" y="70" />
            </Array>
          </mxGeometry>
        </mxCell>
        <mxCell id="ILLCzPjvgJH33XraiZX7-60" value="" style="edgeStyle=elbowEdgeStyle;elbow=horizontal;endArrow=none;html=1;endSize=8;startSize=8;endFill=0;curved=1;entryX=0;entryY=0.5;entryDx=0;entryDy=0;shadow=0;comic=0;strokeOpacity=100;strokeColor=default;strokeWidth=1.2;" edge="1" parent="1" target="ILLCzPjvgJH33XraiZX7-46">
          <mxGeometry width="50" height="50" relative="1" as="geometry">
            <mxPoint x="505" y="90" as="sourcePoint" />
            <mxPoint x="535" y="60" as="targetPoint" />
            <Array as="points">
              <mxPoint x="515" y="80" />
            </Array>
          </mxGeometry>
        </mxCell>
        <mxCell id="ILLCzPjvgJH33XraiZX7-61" value="" style="edgeStyle=elbowEdgeStyle;elbow=horizontal;endArrow=none;html=1;endSize=8;startSize=8;endFill=0;curved=1;entryX=1;entryY=0.5;entryDx=0;entryDy=0;shadow=0;comic=0;strokeOpacity=100;strokeColor=default;strokeWidth=1.2;" edge="1" parent="1" target="ILLCzPjvgJH33XraiZX7-46">
          <mxGeometry width="50" height="50" relative="1" as="geometry">
            <mxPoint x="655" y="90" as="sourcePoint" />
            <mxPoint x="655" y="60" as="targetPoint" />
            <Array as="points">
              <mxPoint x="645" y="70" />
            </Array>
          </mxGeometry>
        </mxCell>
        <mxCell id="ILLCzPjvgJH33XraiZX7-63" value="" style="endArrow=none;html=1;entryX=0;entryY=0.5;entryDx=0;entryDy=0;endFill=0;sourcePerimeterSpacing=0;targetPerimeterSpacing=0;jumpSize=6;shadow=0;comic=0;strokeOpacity=100;strokeColor=default;strokeWidth=1.2;" edge="1" parent="1" target="ILLCzPjvgJH33XraiZX7-1">
          <mxGeometry width="50" height="50" relative="1" as="geometry">
            <mxPoint x="40" y="120" as="sourcePoint" />
            <mxPoint x="55" y="40" as="targetPoint" />
          </mxGeometry>
        </mxCell>
        <mxCell id="ILLCzPjvgJH33XraiZX7-64" value="" style="endArrow=open;html=1;endFill=0;shadow=0;comic=0;strokeOpacity=100;strokeColor=default;strokeWidth=1.2;" edge="1" parent="1">
          <mxGeometry width="50" height="50" relative="1" as="geometry">
            <mxPoint x="675" y="120" as="sourcePoint" />
            <mxPoint x="715" y="120" as="targetPoint" />
          </mxGeometry>
        </mxCell>
        <mxCell id="ILLCzPjvgJH33XraiZX7-65" value="" style="endArrow=open;html=1;endFill=0;sourcePerimeterSpacing=0;targetPerimeterSpacing=0;jumpSize=6;shadow=0;comic=0;strokeOpacity=100;strokeColor=default;strokeWidth=1.2;" edge="1" parent="1">
          <mxGeometry width="50" height="50" relative="1" as="geometry">
            <mxPoint x="40" y="120" as="sourcePoint" />
            <mxPoint x="65" y="120" as="targetPoint" />
          </mxGeometry>
        </mxCell>
      </root>
    </mxGraphModel>
  </diagram>
</mxfile>
